<svg xmlns="http://www.w3.org/2000/svg" viewBox="0 0 263.24 109.68"><title>ZARA logo - Brandlogos.net</title><path d="M465.9,480.13l-17.53,47.72h35l-17.5-47.72Zm54.91,29.93V461.52H532c14.95,0,22.84,8.8,22.84,25.45,0,17.7-4.53,23.1-19.38,23.1Zm53.26,17.6.08.19h26l-17.5-47.72-14.4,39.23.08.07.73.73a23.47,23.47,0,0,1,5,7.5Zm17.05-70.44,39,106.37h13.5v.76h-43v-.76H613.3l-12.83-35h-26l.14.41a29.12,29.12,0,0,1,1.52,9.58v13.11c0,6.74,3,13.58,8.67,13.58,3.34,0,6-1.18,9.18-4.08l.45.42c-3.45,3.64-7.62,5.19-13.89,5.19a20.79,20.79,0,0,1-12-3.38l-.62-.44c-4.28-3.24-7.06-8.53-8.26-15.73l-.19-1.16-.2-1.76,0-.3L552,563.59h10.18v.77H540.91v-.77H551.2l7.88-21.44v0q-.13-1.9-.15-3.8v-9.36c0-11.51-8.56-18.11-23.47-18.11H520.79V563.6H533.5v.76H483.84v-.76H496.5l-12.83-35H448.08l-12.71,34.59.53-.09c16.68-2.88,24.36-15.61,24.46-29h.77v30.25H380.38l59.95-102.85H416.22c-20,0-29,15.43-29.16,30.81h-.77V460.75h72.77l-.44.77L399.12,563.6h31.3c.78,0,1.55,0,2.33-.1.52,0,1-.09,1.57-.15l.19,0,39-106.17h.77l0,.07L505,540.82v-79.3H492.34v-.78h43.43c20.87,0,35.45,10.71,35.45,26.06,0,11.19-10,20.48-24.83,23.12l-2.73.35,2.75.28c9,1,16.15,3.8,21.22,8.23l0,0,22.65-61.65h.77l0,.07Z" transform="translate(-380.38 -457.16)" style="fill-rule:evenodd"/></svg>